name rise42.5664peak47.7979fall81.9185.mot
datacolumns 19
datarows 36
range 21.82826400000000 21.88658000000000
endheader
time	ground_force1_vx	ground_force1_vy	ground_force1_vz	ground_force1_px	ground_force1_py	ground_force1_pz	ground_force2_vx	ground_force2_vy	ground_force2_vz	ground_force2_px	ground_force2_py	ground_force2_pz	ground_torque1_x	ground_torque1_y	ground_torque1_z	ground_torque2_x	ground_torque2_y	ground_torque2_z	
21.82826400000000	46.70207600000000	742.05758200000002	58.60140700000000	0.27064800000000	0.00000000000000	0.12171200000000	-0.92511700000000	28.58769700000000	1.69521500000000	0.00335900000000	0.00000000000000	-0.06613400000000	0.00000000000000	20.50875300000000	0.00000000000000	0.00000000000000	-0.11790300000000	0.00000000000000	
21.82991500000000	46.07870900000000	745.22910300000001	58.81491600000000	0.26973800000000	0.00000000000000	0.12165900000000	-0.52550000000000	22.28727900000000	1.36462700000000	0.00000000000000	0.00000000000000	0.00000000000000	0.00000000000000	20.62484700000000	0.00000000000000	0.00000000000000	-0.02217800000000	0.00000000000000	
21.83158200000000	45.45744000000000	748.29514500000005	59.03070000000000	0.26884800000000	0.00000000000000	0.12160600000000	-0.21523000000000	16.55328300000000	1.05098900000000	0.00000000000000	0.00000000000000	0.00000000000000	0.00000000000000	20.74287800000000	0.00000000000000	0.00000000000000	0.00724300000000	0.00000000000000	
21.83325200000000	44.83881200000000	751.25345800000002	59.24834000000000	0.26797600000000	0.00000000000000	0.12155300000000	0.01250900000000	11.48412300000000	0.76291400000000	0.00000000000000	0.00000000000000	0.00000000000000	0.00000000000000	20.86256300000000	0.00000000000000	0.00000000000000	0.02697000000000	0.00000000000000	
21.83492500000000	44.22329400000000	754.10182999999995	59.46733900000000	0.26712000000000	0.00000000000000	0.12149900000000	0.16661500000000	7.15043100000000	0.50747100000000	0.00000000000000	0.00000000000000	0.00000000000000	0.00000000000000	20.98358200000000	0.00000000000000	0.00000000000000	0.03835300000000	0.00000000000000	
21.83658300000000	43.61128300000000	756.83810100000005	59.68712500000000	0.26628100000000	0.00000000000000	0.12144600000000	0.25751800000000	3.58964600000000	0.28972200000000	0.00000000000000	0.00000000000000	0.00000000000000	0.00000000000000	21.10558600000000	0.00000000000000	0.00000000000000	0.04287500000000	0.00000000000000	
21.83825100000000	43.00310600000000	759.46017500000005	59.90706000000000	0.26545600000000	0.00000000000000	0.12139200000000	0.00000000000000	0.00000000000000	0.00000000000000	0.00000000000000	0.00000000000000	0.00000000000000	0.00000000000000	21.22819500000000	0.00000000000000	0.00000000000000	0.00000000000000	0.00000000000000	
21.83991800000000	42.39902500000000	761.96603300000004	60.12644100000000	0.26464300000000	0.00000000000000	0.12133800000000	0.00000000000000	0.00000000000000	0.00000000000000	0.00000000000000	0.00000000000000	0.00000000000000	0.00000000000000	21.35100300000000	0.00000000000000	0.00000000000000	0.00000000000000	0.00000000000000	
21.84158100000000	41.79923700000000	764.35374800000000	60.34451100000000	0.26384200000000	0.00000000000000	0.12128400000000	0.00000000000000	0.00000000000000	0.00000000000000	0.00000000000000	0.00000000000000	0.00000000000000	0.00000000000000	21.47358300000000	0.00000000000000	0.00000000000000	0.00000000000000	0.00000000000000	
21.84325300000000	41.20388100000000	766.62149299999999	60.56046200000000	0.26305000000000	0.00000000000000	0.12123000000000	0.00000000000000	0.00000000000000	0.00000000000000	0.00000000000000	0.00000000000000	0.00000000000000	0.00000000000000	21.59548600000000	0.00000000000000	0.00000000000000	0.00000000000000	0.00000000000000	
21.84491700000000	40.61303700000000	768.76756100000000	60.77344400000000	0.26226600000000	0.00000000000000	0.12117600000000	0.00000000000000	0.00000000000000	0.00000000000000	0.00000000000000	0.00000000000000	0.00000000000000	0.00000000000000	21.71624600000000	0.00000000000000	0.00000000000000	0.00000000000000	0.00000000000000	
21.84658600000000	40.02673500000000	770.79036699999995	60.98257200000000	0.26148900000000	0.00000000000000	0.12112200000000	0.00000000000000	0.00000000000000	0.00000000000000	0.00000000000000	0.00000000000000	0.00000000000000	0.00000000000000	21.83538800000000	0.00000000000000	0.00000000000000	0.00000000000000	0.00000000000000	
21.84824500000000	39.44495600000000	772.68846799999994	61.18693200000000	0.26071600000000	0.00000000000000	0.12106800000000	0.00000000000000	0.00000000000000	0.00000000000000	0.00000000000000	0.00000000000000	0.00000000000000	0.00000000000000	21.95242200000000	0.00000000000000	0.00000000000000	0.00000000000000	0.00000000000000	
21.84992300000000	38.86763600000000	774.46056799999997	61.38558900000000	0.25994600000000	0.00000000000000	0.12101400000000	0.00000000000000	0.00000000000000	0.00000000000000	0.00000000000000	0.00000000000000	0.00000000000000	0.00000000000000	22.06685400000000	0.00000000000000	0.00000000000000	0.00000000000000	0.00000000000000	
21.85158600000000	38.29467300000000	776.10553300000004	61.57759100000000	0.25917700000000	0.00000000000000	0.12096000000000	0.00000000000000	0.00000000000000	0.00000000000000	0.00000000000000	0.00000000000000	0.00000000000000	0.00000000000000	22.17818700000000	0.00000000000000	0.00000000000000	0.00000000000000	0.00000000000000	
21.85324600000000	37.72592900000000	777.62239499999998	61.76198400000000	0.25840900000000	0.00000000000000	0.12090600000000	0.00000000000000	0.00000000000000	0.00000000000000	0.00000000000000	0.00000000000000	0.00000000000000	0.00000000000000	22.28592400000000	0.00000000000000	0.00000000000000	0.00000000000000	0.00000000000000	
21.85491600000000	37.16123500000000	779.01036699999997	61.93781000000000	0.25763800000000	0.00000000000000	0.12085200000000	0.00000000000000	0.00000000000000	0.00000000000000	0.00000000000000	0.00000000000000	0.00000000000000	0.00000000000000	22.38957000000000	0.00000000000000	0.00000000000000	0.00000000000000	0.00000000000000	
21.85658000000000	36.60039500000000	780.26884600000005	62.10411900000000	0.25686400000000	0.00000000000000	0.12079700000000	0.00000000000000	0.00000000000000	0.00000000000000	0.00000000000000	0.00000000000000	0.00000000000000	0.00000000000000	22.48863900000000	0.00000000000000	0.00000000000000	0.00000000000000	0.00000000000000	
21.85826000000000	36.04319300000000	781.39742500000000	62.25997600000000	0.25608400000000	0.00000000000000	0.12074300000000	0.00000000000000	0.00000000000000	0.00000000000000	0.00000000000000	0.00000000000000	0.00000000000000	0.00000000000000	22.58265400000000	0.00000000000000	0.00000000000000	0.00000000000000	0.00000000000000	
21.85991800000000	35.48939500000000	782.39589400000000	62.40446500000000	0.25529900000000	0.00000000000000	0.12068900000000	0.00000000000000	0.00000000000000	0.00000000000000	0.00000000000000	0.00000000000000	0.00000000000000	0.00000000000000	22.67115000000000	0.00000000000000	0.00000000000000	0.00000000000000	0.00000000000000	
21.86158200000000	34.93875500000000	783.26425200000006	62.53669700000000	0.25450500000000	0.00000000000000	0.12063400000000	0.00000000000000	0.00000000000000	0.00000000000000	0.00000000000000	0.00000000000000	0.00000000000000	0.00000000000000	22.75367900000000	0.00000000000000	0.00000000000000	0.00000000000000	0.00000000000000	
21.86324900000000	34.39101800000000	784.00270999999998	62.65581700000000	0.25370200000000	0.00000000000000	0.12058000000000	0.00000000000000	0.00000000000000	0.00000000000000	0.00000000000000	0.00000000000000	0.00000000000000	0.00000000000000	22.82981200000000	0.00000000000000	0.00000000000000	0.00000000000000	0.00000000000000	
21.86492000000000	33.84592300000000	784.61168999999995	62.76100700000000	0.25288800000000	0.00000000000000	0.12052600000000	0.00000000000000	0.00000000000000	0.00000000000000	0.00000000000000	0.00000000000000	0.00000000000000	0.00000000000000	22.89914200000000	0.00000000000000	0.00000000000000	0.00000000000000	0.00000000000000	
21.86657800000000	33.30321300000000	785.09183800000005	62.85149600000000	0.25206300000000	0.00000000000000	0.12047100000000	0.00000000000000	0.00000000000000	0.00000000000000	0.00000000000000	0.00000000000000	0.00000000000000	0.00000000000000	22.96128500000000	0.00000000000000	0.00000000000000	0.00000000000000	0.00000000000000	
21.86824500000000	32.76263200000000	785.44401700000003	62.92656000000000	0.25122500000000	0.00000000000000	0.12041600000000	0.00000000000000	0.00000000000000	0.00000000000000	0.00000000000000	0.00000000000000	0.00000000000000	0.00000000000000	23.01588300000000	0.00000000000000	0.00000000000000	0.00000000000000	0.00000000000000	
21.86991400000000	32.22393000000000	785.66931299999999	62.98552900000000	0.25037300000000	0.00000000000000	0.12036100000000	0.00000000000000	0.00000000000000	0.00000000000000	0.00000000000000	0.00000000000000	0.00000000000000	0.00000000000000	23.06261000000000	0.00000000000000	0.00000000000000	0.00000000000000	0.00000000000000	
21.87158300000000	31.68687100000000	785.76903800000002	63.02779400000000	0.24950500000000	0.00000000000000	0.12030600000000	0.00000000000000	0.00000000000000	0.00000000000000	0.00000000000000	0.00000000000000	0.00000000000000	0.00000000000000	23.10116600000000	0.00000000000000	0.00000000000000	0.00000000000000	0.00000000000000	
21.87324800000000	31.15123000000000	785.74472300000002	63.05280400000000	0.24862200000000	0.00000000000000	0.12025100000000	0.00000000000000	0.00000000000000	0.00000000000000	0.00000000000000	0.00000000000000	0.00000000000000	0.00000000000000	23.13128800000000	0.00000000000000	0.00000000000000	0.00000000000000	0.00000000000000	
21.87492300000000	30.61680200000000	785.59812199999999	63.06007700000000	0.24772300000000	0.00000000000000	0.12019600000000	0.00000000000000	0.00000000000000	0.00000000000000	0.00000000000000	0.00000000000000	0.00000000000000	0.00000000000000	23.15274400000000	0.00000000000000	0.00000000000000	0.00000000000000	0.00000000000000	
21.87658300000000	30.08339900000000	785.33121000000006	63.04919700000000	0.24680600000000	0.00000000000000	0.12014000000000	0.00000000000000	0.00000000000000	0.00000000000000	0.00000000000000	0.00000000000000	0.00000000000000	0.00000000000000	23.16533700000000	0.00000000000000	0.00000000000000	0.00000000000000	0.00000000000000	
21.87824800000000	29.55085600000000	784.94617600000004	63.01982100000000	0.24587200000000	0.00000000000000	0.12008400000000	0.00000000000000	0.00000000000000	0.00000000000000	0.00000000000000	0.00000000000000	0.00000000000000	0.00000000000000	23.16890900000000	0.00000000000000	0.00000000000000	0.00000000000000	0.00000000000000	
21.87991300000000	29.01903200000000	784.44542600000000	62.97167800000000	0.24491900000000	0.00000000000000	0.12002800000000	0.00000000000000	0.00000000000000	0.00000000000000	0.00000000000000	0.00000000000000	0.00000000000000	0.00000000000000	23.16333800000000	0.00000000000000	0.00000000000000	0.00000000000000	0.00000000000000	
21.88158300000000	28.48781100000000	783.83157000000006	62.90456900000000	0.24394800000000	0.00000000000000	0.11997200000000	0.00000000000000	0.00000000000000	0.00000000000000	0.00000000000000	0.00000000000000	0.00000000000000	0.00000000000000	23.14853700000000	0.00000000000000	0.00000000000000	0.00000000000000	0.00000000000000	
21.88325100000000	27.95710600000000	783.10742400000004	62.81837500000000	0.24295900000000	0.00000000000000	0.11991500000000	0.00000000000000	0.00000000000000	0.00000000000000	0.00000000000000	0.00000000000000	0.00000000000000	0.00000000000000	23.12446100000000	0.00000000000000	0.00000000000000	0.00000000000000	0.00000000000000	
21.88492000000000	27.42685700000000	782.27600299999995	62.71304700000000	0.24195000000000	0.00000000000000	0.11985800000000	0.00000000000000	0.00000000000000	0.00000000000000	0.00000000000000	0.00000000000000	0.00000000000000	0.00000000000000	23.09110100000000	0.00000000000000	0.00000000000000	0.00000000000000	0.00000000000000	
21.88658000000000	26.89703600000000	781.34050999999999	62.58861600000000	0.24092400000000	0.00000000000000	0.11980100000000	0.00000000000000	0.00000000000000	0.00000000000000	0.00000000000000	0.00000000000000	0.00000000000000	0.00000000000000	23.04848400000000	0.00000000000000	0.00000000000000	0.00000000000000	0.00000000000000	
